<svg xmlns="http://www.w3.org/2000/svg" viewBox="-2.00 -80.20 780.81 91.81" width="3123" height="367" role="img" aria-label="Helioflux"><title>Helioflux</title><g fill="#FFFFFF"><path transform="translate(0.000 0) scale(0.100000 -0.100000)" d="M84.50048828125 0V687.54345703125H288.12890625V431.67333984375H700.783203125V687.54345703125H904.41162109375V0H700.783203125V267.783203125H288.12890625V0Z"/><path transform="translate(103.900 0) scale(0.100000 -0.100000)" d="M84.50048828125 0V687.54345703125H801.23876953125V536.63134765625H288.67236328125V421.15185546875H737.4345703125V275.130859375H288.67236328125V150.912109375H809.23876953125V0Z"/><path transform="translate(195.200 0) scale(0.100000 -0.100000)" d="M84.50048828125 0V687.54345703125H288.12890625V163.89013671875H729.5634765625V0Z"/><path transform="translate(275.600 0) scale(0.100000 -0.100000)" d="M84.50048828125 0V687.54345703125H288.12890625V0Z"/><path transform="translate(415.708 0) scale(0.100000 -0.100000)" d="M84.50048828125 0V687.54345703125H761.32568359375V536.63134765625H288.12890625V397.80419921875H708.97802734375V246.89208984375H288.12890625V0Z"/><path transform="translate(500.608 0) scale(0.100000 -0.100000)" d="M84.50048828125 0V687.54345703125H288.12890625V163.89013671875H729.5634765625V0Z"/><path transform="translate(581.008 0) scale(0.100000 -0.100000)" d="M483.9560546875 -12Q347.89111328125 -12 258.771728515625 27.728271484375Q169.65234375 67.45654296875 125.706787109375 142.5869140625Q81.76123046875 217.71728515625 81.76123046875 323.6953125V687.54345703125H285.3896484375V332.869140625Q285.3896484375 240.93408203125 337.28125 190.19482421875Q389.1728515625 139.45556640625 483.9560546875 139.45556640625Q579.28271484375 139.45556640625 631.17431640625 190.19482421875Q683.06591796875 240.93408203125 683.06591796875 332.869140625V687.54345703125H886.6943359375V323.6953125Q886.6943359375 217.71728515625 842.748779296875 142.5869140625Q798.80322265625 67.45654296875 709.640380859375 27.728271484375Q620.4775390625 -12 483.9560546875 -12Z"/><path transform="translate(682.808 0) scale(0.100000 -0.100000)" d="M23.41357421875 0 348.67431640625 355.45654296875 52.95703125 687.54345703125H316.2587890625L476.8251953125 495.32470703125H486.6513671875L654.3916015625 687.54345703125H897.0849609375L600.7373046875 364.0869140625L925.9111328125 0H663.15283203125L472.67333984375 224.1318359375H462.3037109375L267.19384765625 0Z"/></g><defs><mask id="hf4" maskUnits="userSpaceOnUse" x="0" y="0" width="64" height="64"><circle cx="32" cy="32" r="28" fill="#fff"/><g transform="rotate(-20 32 32)" fill="#000"><rect x="-10" y="33" width="84" height="5"/><rect x="-10" y="45" width="84" height="5.5"/></g></mask></defs><g transform="translate(361.804 -34.300) scale(1.56800) translate(-32 -32)"><rect width="64" height="64" fill="#FFFFFF" mask="url(#hf4)"/></g></svg>
